<?xml version="1.0" standalone="no"?>
<svg width="256" height="256" version="1.1" xmlns="http://www.w3.org/2000/svg" xmlns:xlink="http://www.w3.org/1999/xlink">
    <style rel="stylesheet" type="text/css">
.splash {
    fill: #00cc00;
    stroke-width: 3;
    stroke: #bb1111;
}
    </style>

    <defs>
    	<path id="splash" class="splash" d="
M 247.10553819696 113.37567879138
S 247.10553819696 113.37567879138, 239.26206254801 83.047208790091, 197.47823061489 119.46914596164, 192.90286981968 101.77753846089
S 192.90286981968 101.77753846089, 183.90448570331 85.872948379357, 239.26206254801 83.047208790091, 223.83626120568 55.782197221754
S 223.83626120568 55.782197221754, 201.87937703908 33.438709567193, 183.90448570331 85.872948379357, 171.0963032728 72.839247247529
S 171.0963032728 72.839247247529, 155.35117899425 63.564660258329, 201.87937703908 33.438709567193, 174.88773541871 17.539417585707
S 174.88773541871 17.539417585707, 144.70077211521 9.1678317510116, 155.35117899425 63.564660258329, 137.7421170672 58.68123518809
S 137.7421170672 58.68123518809, 119.46914596164 58.521769385107, 144.70077211521 9.1678317510116, 113.37567879138 8.8944618030414
S 113.37567879138 8.8944618030414, 83.047208790091 16.737937451986, 119.46914596164 58.521769385107, 101.77753846089 63.097130180325
S 101.77753846089 63.097130180325, 85.872948379357 72.09551429669, 83.047208790091 16.737937451986, 55.782197221754 32.163738794325
S 55.782197221754 32.163738794325, 33.438709567193 54.120622960921, 85.872948379357 72.09551429669, 72.839247247529 84.903696727204
S 72.839247247529 84.903696727204, 63.564660258329 100.64882100575, 33.438709567193 54.120622960921, 17.539417585707 81.112264581287
S 17.539417585707 81.112264581287, 9.1678317510116 111.29922788479, 63.564660258329 100.64882100575, 58.68123518809 118.2578829328
S 58.68123518809 118.2578829328, 58.521769385107 136.53085403836, 9.1678317510116 111.29922788479, 8.8944618030414 142.62432120862
S 8.8944618030414 142.62432120862, 16.737937451986 172.95279120991, 58.521769385107 136.53085403836, 63.097130180325 154.22246153911
S 63.097130180325 154.22246153911, 72.095514296689 170.12705162064, 16.737937451986 172.95279120991, 32.163738794325 200.21780277825
S 32.163738794325 200.21780277825, 54.120622960921 222.56129043281, 72.095514296689 170.12705162064, 84.903696727204 183.16075275247
S 84.903696727204 183.16075275247, 100.64882100575 192.43533974167, 54.120622960921 222.56129043281, 81.112264581287 238.46058241429
S 81.112264581287 238.46058241429, 111.29922788479 246.83216824899, 100.64882100575 192.43533974167, 118.2578829328 197.31876481191
S 118.2578829328 197.31876481191, 136.53085403836 197.47823061489, 111.29922788479 246.83216824899, 142.62432120862 247.10553819696
S 142.62432120862 247.10553819696, 172.95279120991 239.26206254801, 136.53085403836 197.47823061489, 154.22246153911 192.90286981968
S 154.22246153911 192.90286981968, 170.12705162064 183.90448570331, 172.95279120991 239.26206254801, 200.21780277825 223.83626120568
S 200.21780277825 223.83626120568, 222.56129043281 201.87937703908, 170.12705162064 183.90448570331, 183.16075275247 171.0963032728
S 183.16075275247 171.0963032728, 192.43533974167 155.35117899425, 222.56129043281 201.87937703908, 238.46058241429 174.88773541871
S 238.46058241429 174.88773541871, 246.83216824899 144.70077211521, 192.43533974167 155.35117899425, 197.31876481191 137.7421170672
S 197.31876481191 137.7421170672, 197.47823061489 119.46914596164, 246.83216824899 144.70077211521, 247.10553819696 113.37567879138
" />
    </defs>

    <use xlink:href="#splash" />
</svg>
