<?xml version="1.0" standalone="no"?>
<svg width="256" height="256" version="1.1" xmlns="http://www.w3.org/2000/svg" xmlns:xlink="http://www.w3.org/1999/xlink">
    <style rel="stylesheet" type="text/css">
.pestilence-disease {
    fill: #00cc00;
    stroke: #000000;
    stroke-width: 5;
}
    </style>

    <defs>
    	<path id="pestilence-disease1" class="pestilence-disease" d="M 48,93
C 28,98 8,103 8,128
C 8,153 28,158 48,163
C 68,168 48,188 58,198
C 68,208 88,188 93,208
C 98,228 103,248 128,248
C 153,248 158,228 163,208
C 168,188 188,208 198,198
C 208,188 188,168 208,163
C 228,158 248,153 248,128
C 248,103 228,98 208,93
C 188,88 208,68 198,58
C 188,48 168,68 163,48
C 158,28 153,8 128,8
C 103,8 98,28 93,48
C 88,68 68,48 58,58
C 48,68 68,88 48,93
Z" />
    	<path id="pestilence-disease2" class="pestilence-disease" d="M 228,63
C 228,43 213,28 193,28
C 173,28 158,63 148,63
C 138,63 138,48 128,48
C 118,48 118,63 108,63
C 98,63 83,28 63,28
C 43,28 28,43 28,63
C 28,83 63,98 63,108
C 63,118 48,118 48,128
C 48,138 63,138 63,148
C 63,158 28,173 28,193
C 28,213 43,228 63,228
C 83,228 98,193 108,193
C 118,193 118,208 128,208
C 138,208 138,193 148,193
C 158,193 173,228 193,228
C 213,228 228,213 228,193
C 228,173 193,158 193,148
C 193,138 208,138 208,128
C 208,118 193,118 193,108
C 193,98 228,83 228,63
Z" />
    </defs>

    <use xlink:href="#pestilence-disease1" />
    <use xlink:href="#pestilence-disease2" />
</svg>
