<?xml version="1.0" standalone="no"?>
<svg width="256" height="256" version="1.1" xmlns="http://www.w3.org/2000/svg" xmlns:xlink="http://www.w3.org/1999/xlink">
    <style rel="stylesheet" type="text/css">
.pestilence-disease {
    fill: #00cc00;
    stroke: #000000;
    stroke-width: 5;
}
    </style>

    <defs>
    	<path id="pestilence-disease1" class="pestilence-disease" d="M 218,38
C 198,18 178,38 158,38
C 138,38 148,8 128,8
C 108,8 118,38 98,38
C 78,38 58,18 38,38
C 18,58 38,78 38,98
C 38,118 8,108 8,128
C 8,148 38,138 38,158
C 38,177 18,198 38,218
C 58,238 79,218 98,218
C 118,218 108,248 128,248
C 148,248 138,218 158,218
C 178,218 198,238 218,218
C 238,198 218,178 218,158
C 218,138 248,148 248,128
C 248,108 218,118 218,98
C 218,78 238,58 218,38
Z" />
    	<path id="pestilence-disease2" class="pestilence-disease" d="M 228,63
C 228,43 213,28 193,28
C 173,28 158,63 148,63
C 138,63 138,48 128,48
C 118,48 118,63 108,63
C 98,63 83,28 63,28
C 43,28 28,43 28,63
C 28,83 63,98 63,108
C 63,118 48,118 48,128
C 48,138 63,138 63,148
C 63,158 28,173 28,193
C 28,213 43,228 63,228
C 83,228 98,193 108,193
C 118,193 118,208 128,208
C 138,208 138,193 148,193
C 158,193 173,228 193,228
C 213,228 228,213 228,193
C 228,173 193,158 193,148
C 193,138 208,138 208,128
C 208,118 193,118 193,108
C 193,98 228,83 228,63
Z" />
    </defs>

    <use xlink:href="#pestilence-disease1" />
    <!-- <use xlink:href="#pestilence-disease2" /> -->
</svg>
