<?xml version="1.0" standalone="no"?>
<svg width="256" height="256" version="1.1" xmlns="http://www.w3.org/2000/svg" xmlns:xlink="http://www.w3.org/1999/xlink">
    <style rel="stylesheet" type="text/css">
.smoke-burst {
    fill: #888888;
    stroke: transparent;
}
.inner-burst1 {
    fill: #b01111;
    stroke: transparent;
}
.inner-burst2 {
    fill: #f5de07;
    stroke: transparent;
}
    </style>

    <defs>
	<filter id="blur" x="0" y="0">
	    <feGaussianBlur in="SourceGraphic" stdDeviation="5" />
	</filter>

    	<polygon id="smoke-burst" points="
227.25461516413,115.81306565949
174.35919272834,109.2696703292
207.86355100473,67.818497684795
158.78307376628,88.599462319664
167.07311284893,35.949514654756
134.958655048,78.486596562921
115.81306565949,28.745384835868
109.2696703292,81.640807271661
67.818497684795,48.136448995271
88.599462319664,97.216926233717
35.949514654756,88.926887151073
78.486596562921,121.041344952
28.745384835868,140.18693434051
81.640807271661,146.7303296708
48.136448995271,188.1815023152
97.216926233717,167.40053768034
88.926887151073,220.05048534524
121.041344952,177.51340343708
140.18693434051,227.25461516413
146.7303296708,174.35919272834
188.1815023152,207.86355100473
167.40053768034,158.78307376628
220.05048534524,167.07311284893
177.51340343708,134.958655048
" />
    	<polygon id="inner-burst" points="
187.55276909848,120.68783939569
160.45143490984,114.88876923044
175.91813060284,91.891098610877
149.5481516364,100.41962362376
151.44386770936,72.769708792854
132.8710585336,93.340617594045
120.68783939569,68.447230901521
114.88876923044,95.548565090162
91.891098610877,80.081869397162
100.41962362376,106.4518483636
72.769708792854,104.55613229064
93.340617594045,123.1289414664
68.447230901521,135.31216060431
95.548565090162,141.11123076956
80.081869397162,164.10890138912
106.4518483636,155.58037637624
104.55613229064,183.23029120715
123.1289414664,162.65938240595
135.31216060431,187.55276909848
141.11123076956,160.45143490984
164.10890138912,175.91813060284
155.58037637624,149.5481516364
183.23029120715,151.44386770936
162.65938240595,132.8710585336
" />
    </defs>

    <defs>
	<g id="explosion1">
	    <use xlink:href="#smoke-burst" filter="url(#blur)" class="smoke-burst" />
	    <use xlink:href="#inner-burst" class="inner-burst1" />
	</g>
	<g id="explosion2">
	    <use xlink:href="#smoke-burst" filter="url(#blur)" class="smoke-burst" />
	    <use xlink:href="#inner-burst" class="inner-burst2" />
	</g>
    </defs>

    <use xlink:href="#explosion1" />
</svg>
